Coordinates
version=1
nRows=5
nColumns=53
inDegrees=yes

Units are S.I. units (second, meters, Newtons, ...)
If the header above contains a line with 'inDegrees', this indicates whether rotational values are in degrees (yes) or radians (no).

endheader
time	pelvis_tilt	pelvis_list	pelvis_rot	pelvis_tx	pelvis_ty	pelvis_tz	hip_flex_r	hip_add_r	hip_rot_r	pf_flex_r	pf_rot_r	pf_tilt_r	pf_tx_r	pf_ty_r	pf_tz_r	knee_flex_r	knee_add_r	knee_rot_r	knee_tx_r	knee_ty_r	knee_tz_r	ankle_flex_r	subt_angle_r	mtp_angle_r	hip_flex_l	hip_add_l	hip_rot_l	pf_l_r3	pf_l_tx	pf_l_ty	knee_flex_l	ankle_flex_l	subt_angle_l	mtp_angle_l	lumbar_ext	lumbar_latbend	lumbar_rot	neck_ext	neck_latbend	neck_rot	arm_add_r	arm_flex_r	arm_rot_r	elbow_flex_r	pro_sup_r	wrist_flex_r	arm_add_l	arm_flex_l	arm_rot_l	elbow_flex_l	pro_sup_l	wrist_flex_l
      0.60000000	     -9.27972863	     -3.31979455	      5.35447771	     -0.01237790	      0.94593340	      0.16919772	     -1.48870188	      6.83323012	     -6.52371839	      7.53434868	      0.16480123	     -5.61473216	      0.05219166	      0.00848477	      0.00581191	      3.20496186	     -0.32552588	      2.16760454	      0.00383110	      0.00229445	     -0.00043044	     15.92096611	      3.16656749	      0.00000000	     36.15974885	      1.06838674	     -2.17818048	      0.06513700	      0.04435000	     -0.41871200	      0.14284599	     -0.04347357	      0.06099611	      0.00000000	    -11.91683134	      4.21892293	     17.35904281	     11.77654269	      0.00000000	      0.00000000	    -12.98900517	      0.00000000	      0.00000000	     79.99252893	     45.02388081	      0.00000000	    -12.98900517	      0.00000000	      0.00000000	     79.99252893	     45.02388081	      0.00000000
      0.60833333	     -9.40945452	     -3.48350502	      5.03812350	     -0.00542006	      0.94381418	      0.16914863	     -1.65946727	      6.98317254	     -6.52697342	      7.56942487	      0.14627892	     -5.63090317	      0.05215332	      0.00827118	      0.00580250	      3.48027056	     -0.31974312	      2.16721692	      0.00386401	      0.00230278	     -0.00043816	     16.53182787	      3.61534756	      0.00000000	     36.66107893	      1.12464494	     -1.98866439	      0.06513700	      0.04435000	     -0.41871200	      0.14470510	     -0.04764390	      0.05710318	      0.00000000	    -12.01009235	      4.19164111	     17.76619757	     11.77242179	      0.00000000	      0.00000000	    -12.99327406	      0.00000000	      0.00000000	     79.99255406	     45.02366962	      0.00000000	    -12.99327406	      0.00000000	      0.00000000	     79.99255406	     45.02366962	      0.00000000
      0.61666667	     -9.53383812	     -3.56805111	      4.79782002	      0.00176380	      0.94172558	      0.16888699	     -1.79824477	      7.02795955	     -6.49864785	      7.61824795	      0.11973676	     -5.65245257	      0.05209739	      0.00796724	      0.00578880	      3.87038209	     -0.31199570	      2.16502431	      0.00390846	      0.00231307	     -0.00045146	     17.18175652	      3.98546640	      0.00000000	     37.22843560	      1.06015942	     -1.88285838	      0.06513700	      0.04435000	     -0.41871200	      0.15378489	     -0.05516429	      0.05123537	      0.00000000	    -12.08591114	      4.09139761	     17.95801213	     11.76095540	      0.00000000	      0.00000000	    -13.00492122	      0.00000000	      0.00000000	     79.99262341	     45.02308211	      0.00000000	    -13.00492122	      0.00000000	      0.00000000	     79.99262341	     45.02308211	      0.00000000
      0.62500000	     -9.61670202	     -3.58227179	      4.60966644	      0.00919058	      0.93973935	      0.16836381	     -1.94220044	      6.97174269	     -6.58504273	      7.67921866	      0.08543369	     -5.67784793	      0.05202337	      0.00757820	      0.00577064	      4.36719361	     -0.30287670	      2.15952618	      0.00396178	      0.00232373	     -0.00047211	     17.88971126	      4.44814013	      0.00000000	     37.79507628	      0.89805851	     -1.98488885	      0.06513700	      0.04435000	     -0.41871200	      0.16991506	     -0.06466785	      0.04593071	      0.00000000	    -12.18846913	      3.93164427	     18.06754433	     11.74500559	      0.00000000	      0.00000000	    -13.02165028	      0.00000000	      0.00000000	     79.99272184	     45.02229549	      0.00000000	    -13.02165028	      0.00000000	      0.00000000	     79.99272184	     45.02229549	      0.00000000
      0.63333333	     -9.65209130	     -3.53200194	      4.44386960	      0.01688255	      0.93781402	      0.16763238	     -2.14134239	      6.82681648	     -6.81417916	      7.74326878	      0.04821219	     -5.70286140	      0.05194080	      0.00716102	      0.00575029	      4.89729556	     -0.29405194	      2.15045545	      0.00401527	      0.00233229	     -0.00049815	     18.63385077	      5.07924038	      0.00000000	     38.32961261	      0.65953234	     -2.34302722	      0.06513700	      0.04435000	     -0.41871200	      0.19247960	     -0.07435971	      0.04354700	      0.00000000	    -12.32067608	      3.71381496	     18.12829101	     11.72596283	      0.00000000	      0.00000000	    -13.04150906	      0.00000000	      0.00000000	     79.99283896	     45.02135071	      0.00000000	    -13.04150906	      0.00000000	      0.00000000	     79.99283896	     45.02135071	      0.00000000
